<MidiClip Id="20" Time="144">
										<LomId Value="0" />
										<LomIdView Value="0" />
										<CurrentStart Value="144" />
										<CurrentEnd Value="208" />
										<Loop>
											<LoopStart Value="180" />
											<LoopEnd Value="196" />
											<StartRelative Value="0" />
											<LoopOn Value="true" />
											<OutMarker Value="196" />
											<HiddenLoopStart Value="180" />
											<HiddenLoopEnd Value="196" />
										</Loop>
										<Name Value="Vital 16" />
										<Annotation Value="" />
										<Color Value="56" />
										<LaunchMode Value="0" />
										<LaunchQuantisation Value="0" />
										<TimeSignature>
											<TimeSignatures>
												<RemoteableTimeSignature Id="0">
													<Numerator Value="4" />
													<Denominator Value="4" />
													<Time Value="0" />
												</RemoteableTimeSignature>
											</TimeSignatures>
										</TimeSignature>
										<Envelopes>
											<Envelopes />
										</Envelopes>
										<ScrollerTimePreserver>
											<LeftTime Value="172" />
											<RightTime Value="188" />
										</ScrollerTimePreserver>
										<TimeSelection>
											<AnchorTime Value="195" />
											<OtherTime Value="195.97253969988344" />
										</TimeSelection>
										<Legato Value="false" />
										<Ram Value="false" />
										<GrooveSettings>
											<GrooveId Value="-1" />
										</GrooveSettings>
										<Disabled Value="false" />
										<VelocityAmount Value="0" />
										<FollowAction>
											<FollowTime Value="4" />
											<IsLinked Value="true" />
											<LoopIterations Value="1" />
											<FollowActionA Value="4" />
											<FollowActionB Value="0" />
											<FollowChanceA Value="100" />
											<FollowChanceB Value="0" />
											<JumpIndexA Value="1" />
											<JumpIndexB Value="1" />
											<FollowActionEnabled Value="false" />
										</FollowAction>
										<Grid>
											<FixedNumerator Value="1" />
											<FixedDenominator Value="16" />
											<GridIntervalPixel Value="20" />
											<Ntoles Value="2" />
											<SnapToGrid Value="true" />
											<Fixed Value="true" />
										</Grid>
										<FreezeStart Value="0" />
										<FreezeEnd Value="0" />
										<IsWarped Value="true" />
										<TakeId Value="16" />
										<Notes>
											<KeyTracks>
												<KeyTrack Id="30">
													<Notes>
														<MidiNoteEvent Time="16" Duration="1.125661317848818" Velocity="101" VelocityDeviation="0" OffVelocity="0" Probability="1" IsEnabled="true" NoteId="19" />
														<MidiNoteEvent Time="32" Duration="1.0330156822344323" Velocity="105" VelocityDeviation="0" OffVelocity="0" Probability="1" IsEnabled="true" NoteId="41" />
														<MidiNoteEvent Time="48" Duration="1.1621693410755911" Velocity="95" VelocityDeviation="0" OffVelocity="0" Probability="1" IsEnabled="true" NoteId="63" />
														<MidiNoteEvent Time="80" Duration="1.096190268065268" Velocity="101" VelocityDeviation="0" OffVelocity="0" Probability="1" IsEnabled="true" NoteId="106" />
														<MidiNoteEvent Time="96" Duration="1.1126982392607392" Velocity="107" VelocityDeviation="0" OffVelocity="0" Probability="1" IsEnabled="true" NoteId="128" />
														<MidiNoteEvent Time="104" Duration="1.2173014485514486" Velocity="101" VelocityDeviation="0" OffVelocity="0" Probability="1" IsEnabled="true" NoteId="138" />
														<MidiNoteEvent Time="128" Duration="1.09624333999334" Velocity="97" VelocityDeviation="0" OffVelocity="0" Probability="1" IsEnabled="true" NoteId="158" />
														<MidiNoteEvent Time="144" Duration="1.1023281406093905" Velocity="105" VelocityDeviation="0" OffVelocity="0" Probability="1" IsEnabled="true" NoteId="180" />
														<MidiNoteEvent Time="160" Duration="1.1976190476190476" Velocity="98" VelocityDeviation="0" OffVelocity="0" Probability="1" IsEnabled="true" NoteId="202" />
														<MidiNoteEvent Time="167" Duration="0.613174585830835839" Velocity="92" VelocityDeviation="0" OffVelocity="0" Probability="1" IsEnabled="true" NoteId="210" />
														<MidiNoteEvent Time="192" Duration="1.0750265359640359" Velocity="92" VelocityDeviation="0" OffVelocity="0" Probability="1" IsEnabled="true" NoteId="237" />
													</Notes>
													<MidiKey Value="61" />
												</KeyTrack>
												<KeyTrack Id="31">
													<Notes>
														<MidiNoteEvent Time="7.5" Duration="0.545238095238095188" Velocity="81" VelocityDeviation="0" OffVelocity="0" Probability="1" IsEnabled="true" NoteId="6" />
														<MidiNoteEvent Time="11" Duration="0.5892063665501166" Velocity="92" VelocityDeviation="0" OffVelocity="0" Probability="1" IsEnabled="true" NoteId="11" />
														<MidiNoteEvent Time="15" Duration="0.655925844988344942" Velocity="100" VelocityDeviation="0" OffVelocity="0" Probability="1" IsEnabled="true" NoteId="17" />
														<MidiNoteEvent Time="17" Duration="1.0521163732101233" Velocity="94" VelocityDeviation="0" OffVelocity="0" Probability="1" IsEnabled="true" NoteId="20" />
														<MidiNoteEvent Time="23" Duration="0.568677156177156196" Velocity="102" VelocityDeviation="0" OffVelocity="0" Probability="1" IsEnabled="true" NoteId="27" />
														<MidiNoteEvent Time="27" Duration="0.610370358807858837" Velocity="96" VelocityDeviation="0" OffVelocity="0" Probability="1" IsEnabled="true" NoteId="33" />
														<MidiNoteEvent Time="31" Duration="0.653439008907758856" Velocity="94" VelocityDeviation="0" OffVelocity="0" Probability="1" IsEnabled="true" NoteId="39" />
														<MidiNoteEvent Time="33" Duration="0.836772602397602427" Velocity="104" VelocityDeviation="0" OffVelocity="0" Probability="1" IsEnabled="true" NoteId="42" />
														<MidiNoteEvent Time="39" Duration="0.721534455128205132" Velocity="106" VelocityDeviation="0" OffVelocity="0" Probability="1" IsEnabled="true" NoteId="49" />
														<MidiNoteEvent Time="43" Duration="0.646984265734265707" Velocity="104" VelocityDeviation="0" OffVelocity="0" Probability="1" IsEnabled="true" NoteId="55" />
														<MidiNoteEvent Time="47" Duration="0.563545048701298734" Velocity="105" VelocityDeviation="0" OffVelocity="0" Probability="1" IsEnabled="true" NoteId="60" />
														<MidiNoteEvent Time="49" Duration="1.0981482059607059" Velocity="103" VelocityDeviation="0" OffVelocity="0" Probability="1" IsEnabled="true" NoteId="64" />
														<MidiNoteEvent Time="55" Duration="0.592910214785214773" Velocity="102" VelocityDeviation="0" OffVelocity="0" Probability="1" IsEnabled="true" NoteId="71" />
														<MidiNoteEvent Time="59" Duration="0.623544944638694587" Velocity="81" VelocityDeviation="0" OffVelocity="0" Probability="1" IsEnabled="true" NoteId="77" />
														<MidiNoteEvent Time="63" Duration="0.586613906926406914" Velocity="91" VelocityDeviation="0" OffVelocity="0" Probability="1" IsEnabled="true" NoteId="83" />
														<MidiNoteEvent Time="71" Duration="0.56433852605727608" Velocity="93" VelocityDeviation="0" OffVelocity="0" Probability="1" IsEnabled="true" NoteId="92" />
														<MidiNoteEvent Time="75" Duration="0.672486888111888059" Velocity="102" VelocityDeviation="0" OffVelocity="0" Probability="1" IsEnabled="true" NoteId="98" />
														<MidiNoteEvent Time="79" Duration="0.578677312271062227" Velocity="100" VelocityDeviation="0" OffVelocity="0" Probability="1" IsEnabled="true" NoteId="104" />
														<MidiNoteEvent Time="80.75" Duration="1.0714816433566434" Velocity="101" VelocityDeviation="0" OffVelocity="0" Probability="1" IsEnabled="true" NoteId="107" />
														<MidiNoteEvent Time="87" Duration="0.584021187146187115" Velocity="91" VelocityDeviation="0" OffVelocity="0" Probability="1" IsEnabled="true" NoteId="114" />
														<MidiNoteEvent Time="91" Duration="0.570952224858474855" Velocity="81" VelocityDeviation="0" OffVelocity="0" Probability="1" IsEnabled="true" NoteId="120" />
														<MidiNoteEvent Time="95" Duration="0.563809367715617737" Velocity="97" VelocityDeviation="0" OffVelocity="0" Probability="1" IsEnabled="true" NoteId="126" />
														<MidiNoteEvent Time="98" Duration="0.944391545954045952" Velocity="119" VelocityDeviation="0" OffVelocity="0" Probability="1" IsEnabled="true" NoteId="130" />
														<MidiNoteEvent Time="103" Duration="0.657460248085248056" Velocity="93" VelocityDeviation="0" OffVelocity="0" Probability="1" IsEnabled="true" NoteId="136" />
														<MidiNoteEvent Time="119" Duration="0.575291115134865083" Velocity="89" VelocityDeviation="0" OffVelocity="0" Probability="1" IsEnabled="true" NoteId="144" />
														<MidiNoteEvent Time="123" Duration="0.586560834998335001" Velocity="97" VelocityDeviation="0" OffVelocity="0" Probability="1" IsEnabled="true" NoteId="150" />
														<MidiNoteEvent Time="127" Duration="0.586137560356310372" Velocity="101" VelocityDeviation="0" OffVelocity="0" Probability="1" IsEnabled="true" NoteId="156" />
														<MidiNoteEvent Time="131" Duration="0.953597964535464526" Velocity="104" VelocityDeviation="0" OffVelocity="0" Probability="1" IsEnabled="true" NoteId="161" />
														<MidiNoteEvent Time="135" Duration="0.537566079753579729" Velocity="100" VelocityDeviation="0" OffVelocity="0" Probability="1" IsEnabled="true" NoteId="166" />
														<MidiNoteEvent Time="139" Duration="0.567671911421911424" Velocity="81" VelocityDeviation="0" OffVelocity="0" Probability="1" IsEnabled="true" NoteId="172" />
														<MidiNoteEvent Time="143" Duration="0.559682504995005048" Velocity="115" VelocityDeviation="0" OffVelocity="0" Probability="1" IsEnabled="true" NoteId="178" />
														<MidiNoteEvent Time="146" Duration="0.944708936896436868" Velocity="125" VelocityDeviation="0" OffVelocity="0" Probability="1" IsEnabled="true" NoteId="182" />
														<MidiNoteEvent Time="151" Duration="0.578836007742257741" Velocity="96" VelocityDeviation="0" OffVelocity="0" Probability="1" IsEnabled="true" NoteId="188" />
														<MidiNoteEvent Time="155" Duration="0.620158747502497554" Velocity="81" VelocityDeviation="0" OffVelocity="0" Probability="1" IsEnabled="true" NoteId="194" />
														<MidiNoteEvent Time="159" Duration="0.563915251415251451" Velocity="111" VelocityDeviation="0" OffVelocity="0" Probability="1" IsEnabled="true" NoteId="200" />
														<MidiNoteEvent Time="163" Duration="0.962010645604395642" Velocity="107" VelocityDeviation="0" OffVelocity="0" Probability="1" IsEnabled="true" NoteId="205" />
														<MidiNoteEvent Time="171" Duration="0.583703796203796199" Velocity="94" VelocityDeviation="0" OffVelocity="0" Probability="1" IsEnabled="true" NoteId="216" />
														<MidiNoteEvent Time="183" Duration="0.623015786297036245" Velocity="102" VelocityDeviation="0" OffVelocity="0" Probability="1" IsEnabled="true" NoteId="223" />
														<MidiNoteEvent Time="187" Duration="0.574603001165501115" Velocity="83" VelocityDeviation="0" OffVelocity="0" Probability="1" IsEnabled="true" NoteId="229" />
														<MidiNoteEvent Time="191" Duration="0.576772446303696285" Velocity="98" VelocityDeviation="0" OffVelocity="0" Probability="1" IsEnabled="true" NoteId="235" />
														<MidiNoteEvent Time="194" Duration="0.986137560356310394" Velocity="110" VelocityDeviation="0" OffVelocity="0" Probability="1" IsEnabled="true" NoteId="239" />
													</Notes>
													<MidiKey Value="62" />
												</KeyTrack>
												<KeyTrack Id="32">
													<Notes>
														<MidiNoteEvent Time="7" Duration="0.559153346653346706" Velocity="97" VelocityDeviation="0" OffVelocity="0" Probability="1" IsEnabled="true" NoteId="5" />
														<MidiNoteEvent Time="10.5" Duration="0.520952485014985034" Velocity="96" VelocityDeviation="0" OffVelocity="0" Probability="1" IsEnabled="true" NoteId="10" />
														<MidiNoteEvent Time="11.5" Duration="0.459576621295371301" Velocity="106" VelocityDeviation="0" OffVelocity="0" Probability="1" IsEnabled="true" NoteId="12" />
														<MidiNoteEvent Time="14.5" Duration="0.525449810606060552" Velocity="94" VelocityDeviation="0" OffVelocity="0" Probability="1" IsEnabled="true" NoteId="16" />
														<MidiNoteEvent Time="15.5" Duration="0.549206262487512475" Velocity="98" VelocityDeviation="0" OffVelocity="0" Probability="1" IsEnabled="true" NoteId="18" />
														<MidiNoteEvent Time="19" Duration="0.894603313353313334" Velocity="104" VelocityDeviation="0" OffVelocity="0" Probability="1" IsEnabled="true" NoteId="22" />
														<MidiNoteEvent Time="22.5" Duration="0.581693046536796543" Velocity="100" VelocityDeviation="0" OffVelocity="0" Probability="1" IsEnabled="true" NoteId="26" />
														<MidiNoteEvent Time="23.5" Duration="0.533174637862137812" Velocity="105" VelocityDeviation="0" OffVelocity="0" Probability="1" IsEnabled="true" NoteId="28" />
														<MidiNoteEvent Time="26.5" Duration="0.533439217032967039" Velocity="101" VelocityDeviation="0" OffVelocity="0" Probability="1" IsEnabled="true" NoteId="32" />
														<MidiNoteEvent Time="27.5" Duration="0.546666874791874813" Velocity="112" VelocityDeviation="0" OffVelocity="0" Probability="1" IsEnabled="true" NoteId="34" />
														<MidiNoteEvent Time="30.5" Duration="0.587407384282384259" Velocity="87" VelocityDeviation="0" OffVelocity="0" Probability="1" IsEnabled="true" NoteId="37" />
														<MidiNoteEvent Time="31.5" Duration="0.42846554487179489" Velocity="106" VelocityDeviation="0" OffVelocity="0" Probability="1" IsEnabled="true" NoteId="40" />
														<MidiNoteEvent Time="34" Duration="0.949206262487512498" Velocity="112" VelocityDeviation="0" OffVelocity="0" Probability="1" IsEnabled="true" NoteId="43" />
														<MidiNoteEvent Time="38.5" Duration="0.497778003246753253" Velocity="98" VelocityDeviation="0" OffVelocity="0" Probability="1" IsEnabled="true" NoteId="48" />
														<MidiNoteEvent Time="39.5" Duration="0.485026431901431909" Velocity="106" VelocityDeviation="0" OffVelocity="0" Probability="1" IsEnabled="true" NoteId="50" />
														<MidiNoteEvent Time="42.5" Duration="0.572275120712620766" Velocity="91" VelocityDeviation="0" OffVelocity="0" Probability="1" IsEnabled="true" NoteId="54" />
														<MidiNoteEvent Time="43.5" Duration="0.536719790626040583" Velocity="109" VelocityDeviation="0" OffVelocity="0" Probability="1" IsEnabled="true" NoteId="56" />
														<MidiNoteEvent Time="46.5" Duration="0.583862491674991713" Velocity="94" VelocityDeviation="0" OffVelocity="0" Probability="1" IsEnabled="true" NoteId="59" />
														<MidiNoteEvent Time="47.5" Duration="0.379788180569430589" Velocity="102" VelocityDeviation="0" OffVelocity="0" Probability="1" IsEnabled="true" NoteId="61" />
														<MidiNoteEvent Time="51" Duration="0.93798935439560438" Velocity="100" VelocityDeviation="0" OffVelocity="0" Probability="1" IsEnabled="true" NoteId="66" />
														<MidiNoteEvent Time="54.5" Duration="0.576137404262404229" Velocity="90" VelocityDeviation="0" OffVelocity="0" Probability="1" IsEnabled="true" NoteId="70" />
														<MidiNoteEvent Time="55.5" Duration="0.513121774059274061" Velocity="100" VelocityDeviation="0" OffVelocity="0" Probability="1" IsEnabled="true" NoteId="72" />
														<MidiNoteEvent Time="58.5" Duration="0.54428592241092244" Velocity="91" VelocityDeviation="0" OffVelocity="0" Probability="1" IsEnabled="true" NoteId="76" />
														<MidiNoteEvent Time="59.5" Duration="0.628994703213453188" Velocity="91" VelocityDeviation="0" OffVelocity="0" Probability="1" IsEnabled="true" NoteId="78" />
														<MidiNoteEvent Time="62.5" Duration="0.546878382034632016" Velocity="92" VelocityDeviation="0" OffVelocity="0" Probability="1" IsEnabled="true" NoteId="82" />
														<MidiNoteEvent Time="63.5" Duration="0.458518564768564785" Velocity="103" VelocityDeviation="0" OffVelocity="0" Probability="1" IsEnabled="true" NoteId="84" />
														<MidiNoteEvent Time="70.5" Duration="0.561005400849150848" Velocity="82" VelocityDeviation="0" OffVelocity="0" Probability="1" IsEnabled="true" NoteId="91" />
														<MidiNoteEvent Time="71.5" Duration="0.550370462870462873" Velocity="102" VelocityDeviation="0" OffVelocity="0" Probability="1" IsEnabled="true" NoteId="93" />
														<MidiNoteEvent Time="74.5" Duration="0.597936438561438521" Velocity="89" VelocityDeviation="0" OffVelocity="0" Probability="1" IsEnabled="true" NoteId="97" />
														<MidiNoteEvent Time="75.5" Duration="0.429470789627039606" Velocity="100" VelocityDeviation="0" OffVelocity="0" Probability="1" IsEnabled="true" NoteId="99" />
														<MidiNoteEvent Time="78.5" Duration="0.557407436313686278" Velocity="81" VelocityDeviation="0" OffVelocity="0" Probability="1" IsEnabled="true" NoteId="102" />
														<MidiNoteEvent Time="79.5" Duration="0.441904970029970035" Velocity="111" VelocityDeviation="0" OffVelocity="0" Probability="1" IsEnabled="true" NoteId="105" />
														<MidiNoteEvent Time="83" Duration="0.940264423076923039" Velocity="102" VelocityDeviation="0" OffVelocity="0" Probability="1" IsEnabled="true" NoteId="109" />
														<MidiNoteEvent Time="86.5" Duration="0.495396790709290713" Velocity="90" VelocityDeviation="0" OffVelocity="0" Probability="1" IsEnabled="true" NoteId="112" />
														<MidiNoteEvent Time="87.5" Duration="0.506560887029636975" Velocity="102" VelocityDeviation="0" OffVelocity="0" Probability="1" IsEnabled="true" NoteId="115" />
														<MidiNoteEvent Time="90.5" Duration="0.5797881805694306" Velocity="94" VelocityDeviation="0" OffVelocity="0" Probability="1" IsEnabled="true" NoteId="119" />
														<MidiNoteEvent Time="91.5" Duration="0.430423222610722633" Velocity="107" VelocityDeviation="0" OffVelocity="0" Probability="1" IsEnabled="true" NoteId="121" />
														<MidiNoteEvent Time="94.5" Duration="0.563544788544788511" Velocity="91" VelocityDeviation="0" OffVelocity="0" Probability="1" IsEnabled="true" NoteId="125" />
														<MidiNoteEvent Time="95.5" Duration="0.467724983349983359" Velocity="103" VelocityDeviation="0" OffVelocity="0" Probability="1" IsEnabled="true" NoteId="127" />
														<MidiNoteEvent Time="97" Duration="1.1283599213286712" Velocity="84" VelocityDeviation="0" OffVelocity="0" Probability="1" IsEnabled="true" NoteId="129" />
														<MidiNoteEvent Time="102.5" Duration="0.491957521645021656" Velocity="97" VelocityDeviation="0" OffVelocity="0" Probability="1" IsEnabled="true" NoteId="135" />
														<MidiNoteEvent Time="103.5" Duration="0.408253985597735625" Velocity="106" VelocityDeviation="0" OffVelocity="0" Probability="1" IsEnabled="true" NoteId="137" />
														<MidiNoteEvent Time="105" Duration="1.3360319368131868" Velocity="113" VelocityDeviation="0" OffVelocity="0" Probability="1" IsEnabled="true" NoteId="139" />
														<MidiNoteEvent Time="118.5" Duration="0.534497273559773611" Velocity="100" VelocityDeviation="0" OffVelocity="0" Probability="1" IsEnabled="true" NoteId="143" />
														<MidiNoteEvent Time="119.5" Duration="0.521058108558108524" Velocity="104" VelocityDeviation="0" OffVelocity="0" Probability="1" IsEnabled="true" NoteId="145" />
														<MidiNoteEvent Time="122.5" Duration="0.549629537129537105" Velocity="95" VelocityDeviation="0" OffVelocity="0" Probability="1" IsEnabled="true" NoteId="149" />
														<MidiNoteEvent Time="123.5" Duration="0.458624448468198442" Velocity="107" VelocityDeviation="0" OffVelocity="0" Probability="1" IsEnabled="true" NoteId="151" />
														<MidiNoteEvent Time="126.5" Duration="0.51179887820512826" Velocity="93" VelocityDeviation="0" OffVelocity="0" Probability="1" IsEnabled="true" NoteId="155" />
														<MidiNoteEvent Time="127.5" Duration="0.428994703213453232" Velocity="113" VelocityDeviation="0" OffVelocity="0" Probability="1" IsEnabled="true" NoteId="157" />
														<MidiNoteEvent Time="129" Duration="1.0995767253579753" Velocity="113" VelocityDeviation="0" OffVelocity="0" Probability="1" IsEnabled="true" NoteId="159" />
														<MidiNoteEvent Time="134.5" Duration="0.572063613469863452" Velocity="93" VelocityDeviation="0" OffVelocity="0" Probability="1" IsEnabled="true" NoteId="165" />
														<MidiNoteEvent Time="135.5" Duration="0.450899621212121238" Velocity="108" VelocityDeviation="0" OffVelocity="0" Probability="1" IsEnabled="true" NoteId="167" />
														<MidiNoteEvent Time="138.5" Duration="0.49952391358641357" Velocity="89" VelocityDeviation="0" OffVelocity="0" Probability="1" IsEnabled="true" NoteId="171" />
														<MidiNoteEvent Time="139.5" Duration="0.452433764152514128" Velocity="110" VelocityDeviation="0" OffVelocity="0" Probability="1" IsEnabled="true" NoteId="173" />
														<MidiNoteEvent Time="142.5" Duration="0.554285558191808136" Velocity="99" VelocityDeviation="0" OffVelocity="0" Probability="1" IsEnabled="true" NoteId="177" />
														<MidiNoteEvent Time="143.5" Duration="0.414127018814518799" Velocity="118" VelocityDeviation="0" OffVelocity="0" Probability="1" IsEnabled="true" NoteId="179" />
														<MidiNoteEvent Time="145" Duration="1.204709092990343" Velocity="104" VelocityDeviation="0" OffVelocity="0" Probability="1" IsEnabled="true" NoteId="181" />
														<MidiNoteEvent Time="150.5" Duration="0.513386093073593064" Velocity="97" VelocityDeviation="0" OffVelocity="0" Probability="1" IsEnabled="true" NoteId="187" />
														<MidiNoteEvent Time="151.5" Duration="0.367724723193473213" Velocity="115" VelocityDeviation="0" OffVelocity="0" Probability="1" IsEnabled="true" NoteId="189" />
														<MidiNoteEvent Time="154.5" Duration="0.411587370962370969" Velocity="85" VelocityDeviation="0" OffVelocity="0" Probability="1" IsEnabled="true" NoteId="193" />
														<MidiNoteEvent Time="155.5" Duration="0.424285610223110232" Velocity="113" VelocityDeviation="0" OffVelocity="0" Probability="1" IsEnabled="true" NoteId="195" />
														<MidiNoteEvent Time="158.5" Duration="0.535132315601065556" Velocity="93" VelocityDeviation="0" OffVelocity="0" Probability="1" IsEnabled="true" NoteId="199" />
														<MidiNoteEvent Time="159.5" Duration="0.385291011072261047" Velocity="102" VelocityDeviation="0" OffVelocity="0" Probability="1" IsEnabled="true" NoteId="201" />
														<MidiNoteEvent Time="161" Duration="1.0844444617882119" Velocity="100" VelocityDeviation="0" OffVelocity="0" Probability="1" IsEnabled="true" NoteId="203" />
														<MidiNoteEvent Time="166.5" Duration="0.522486627955377925" Velocity="98" VelocityDeviation="0" OffVelocity="0" Probability="1" IsEnabled="true" NoteId="209" />
														<MidiNoteEvent Time="167.5" Duration="0.358042478354978377" Velocity="106" VelocityDeviation="0" OffVelocity="0" Probability="1" IsEnabled="true" NoteId="211" />
														<MidiNoteEvent Time="170.5" Duration="0.549682348901098905" Velocity="94" VelocityDeviation="0" OffVelocity="0" Probability="1" IsEnabled="true" NoteId="215" />
														<MidiNoteEvent Time="171.5" Duration="0.433333333333333348" Velocity="95" VelocityDeviation="0" OffVelocity="0" Probability="1" IsEnabled="true" NoteId="217" />
														<MidiNoteEvent Time="182.5" Duration="0.525714129620379667" Velocity="95" VelocityDeviation="0" OffVelocity="0" Probability="1" IsEnabled="true" NoteId="222" />
														<MidiNoteEvent Time="183.5" Duration="0.5" Velocity="112" VelocityDeviation="0" OffVelocity="0" Probability="1" IsEnabled="true" NoteId="224" />
														<MidiNoteEvent Time="186.5" Duration="0.459417925824175843" Velocity="89" VelocityDeviation="0" OffVelocity="0" Probability="1" IsEnabled="true" NoteId="228" />
														<MidiNoteEvent Time="187.5" Duration="0.5" Velocity="106" VelocityDeviation="0" OffVelocity="0" Probability="1" IsEnabled="true" NoteId="230" />
														<MidiNoteEvent Time="190.5" Duration="0.487301500582750569" Velocity="90" VelocityDeviation="0" OffVelocity="0" Probability="1" IsEnabled="true" NoteId="234" />
														<MidiNoteEvent Time="191.5" Duration="0.516064144189144147" Velocity="102" VelocityDeviation="0" OffVelocity="0" Probability="1" IsEnabled="true" NoteId="236" />
														<MidiNoteEvent Time="193" Duration="1.1978305548618049" Velocity="109" VelocityDeviation="0" OffVelocity="0" Probability="1" IsEnabled="true" NoteId="238" />
													</Notes>
													<MidiKey Value="64" />
												</KeyTrack>
												<KeyTrack Id="33">
													<Notes>
														<MidiNoteEvent Time="5" Duration="0.567354520479520508" Velocity="97" VelocityDeviation="0" OffVelocity="0" Probability="1" IsEnabled="true" NoteId="2" />
														<MidiNoteEvent Time="6.5" Duration="0.653491820679320656" Velocity="92" VelocityDeviation="0" OffVelocity="0" Probability="1" IsEnabled="true" NoteId="4" />
														<MidiNoteEvent Time="9" Duration="0.618783039876789842" Velocity="96" VelocityDeviation="0" OffVelocity="0" Probability="1" IsEnabled="true" NoteId="8" />
														<MidiNoteEvent Time="13" Duration="0.711534559190809213" Velocity="95" VelocityDeviation="0" OffVelocity="0" Probability="1" IsEnabled="true" NoteId="14" />
														<MidiNoteEvent Time="18" Duration="1.2673545204795205" Velocity="94" VelocityDeviation="0" OffVelocity="0" Probability="1" IsEnabled="true" NoteId="21" />
														<MidiNoteEvent Time="21" Duration="0.644232850482850505" Velocity="95" VelocityDeviation="0" OffVelocity="0" Probability="1" IsEnabled="true" NoteId="24" />
														<MidiNoteEvent Time="25" Duration="0.658412681068931027" Velocity="85" VelocityDeviation="0" OffVelocity="0" Probability="1" IsEnabled="true" NoteId="30" />
														<MidiNoteEvent Time="29" Duration="0.648782987845487824" Velocity="95" VelocityDeviation="0" OffVelocity="0" Probability="1" IsEnabled="true" NoteId="36" />
														<MidiNoteEvent Time="35" Duration="0.823650828338328367" Velocity="95" VelocityDeviation="0" OffVelocity="0" Probability="1" IsEnabled="true" NoteId="44" />
														<MidiNoteEvent Time="37" Duration="0.566402087495837536" Velocity="95" VelocityDeviation="0" OffVelocity="0" Probability="1" IsEnabled="true" NoteId="46" />
														<MidiNoteEvent Time="41" Duration="0.693439112970362981" Velocity="87" VelocityDeviation="0" OffVelocity="0" Probability="1" IsEnabled="true" NoteId="52" />
														<MidiNoteEvent Time="45" Duration="0.655132367632367596" Velocity="93" VelocityDeviation="0" OffVelocity="0" Probability="1" IsEnabled="true" NoteId="58" />
														<MidiNoteEvent Time="50" Duration="1.2148146124708625" Velocity="100" VelocityDeviation="0" OffVelocity="0" Probability="1" IsEnabled="true" NoteId="65" />
														<MidiNoteEvent Time="53" Duration="0.598888871545121493" Velocity="87" VelocityDeviation="0" OffVelocity="0" Probability="1" IsEnabled="true" NoteId="68" />
														<MidiNoteEvent Time="57" Duration="0.711164096320346273" Velocity="93" VelocityDeviation="0" OffVelocity="0" Probability="1" IsEnabled="true" NoteId="74" />
														<MidiNoteEvent Time="61" Duration="0.578518616799866825" Velocity="96" VelocityDeviation="0" OffVelocity="0" Probability="1" IsEnabled="true" NoteId="80" />
														<MidiNoteEvent Time="65" Duration="0.657460508241758279" Velocity="83" VelocityDeviation="0" OffVelocity="0" Probability="1" IsEnabled="true" NoteId="86" />
														<MidiNoteEvent Time="69" Duration="0.609629693223443181" Velocity="87" VelocityDeviation="0" OffVelocity="0" Probability="1" IsEnabled="true" NoteId="89" />
														<MidiNoteEvent Time="73" Duration="0.701322635697635643" Velocity="86" VelocityDeviation="0" OffVelocity="0" Probability="1" IsEnabled="true" NoteId="95" />
														<MidiNoteEvent Time="77" Duration="0.621693150599400557" Velocity="96" VelocityDeviation="0" OffVelocity="0" Probability="1" IsEnabled="true" NoteId="101" />
														<MidiNoteEvent Time="81.75" Duration="1.2394181339493839" Velocity="100" VelocityDeviation="0" OffVelocity="0" Probability="1" IsEnabled="true" NoteId="108" />
														<MidiNoteEvent Time="85" Duration="0.655767149517149539" Velocity="80" VelocityDeviation="0" OffVelocity="0" Probability="1" IsEnabled="true" NoteId="111" />
														<MidiNoteEvent Time="89" Duration="0.719259126290376249" Velocity="83" VelocityDeviation="0" OffVelocity="0" Probability="1" IsEnabled="true" NoteId="117" />
														<MidiNoteEvent Time="93" Duration="0.615767305611055638" Velocity="90" VelocityDeviation="0" OffVelocity="0" Probability="1" IsEnabled="true" NoteId="123" />
														<MidiNoteEvent Time="99" Duration="0.991005348817848852" Velocity="106" VelocityDeviation="0" OffVelocity="0" Probability="1" IsEnabled="true" NoteId="131" />
														<MidiNoteEvent Time="101" Duration="0.735608402014652052" Velocity="93" VelocityDeviation="0" OffVelocity="0" Probability="1" IsEnabled="true" NoteId="133" />
														<MidiNoteEvent Time="117" Duration="0.598412785131535174" Velocity="99" VelocityDeviation="0" OffVelocity="0" Probability="1" IsEnabled="true" NoteId="141" />
														<MidiNoteEvent Time="121" Duration="0.749470841658341658" Velocity="93" VelocityDeviation="0" OffVelocity="0" Probability="1" IsEnabled="true" NoteId="147" />
														<MidiNoteEvent Time="125" Duration="0.655132367632367596" Velocity="87" VelocityDeviation="0" OffVelocity="0" Probability="1" IsEnabled="true" NoteId="153" />
														<MidiNoteEvent Time="130" Duration="1.2323280885780885" Velocity="101" VelocityDeviation="0" OffVelocity="0" Probability="1" IsEnabled="true" NoteId="160" />
														<MidiNoteEvent Time="133" Duration="0.608148101898101867" Velocity="93" VelocityDeviation="0" OffVelocity="0" Probability="1" IsEnabled="true" NoteId="163" />
														<MidiNoteEvent Time="137" Duration="0.67259251165501166" Velocity="96" VelocityDeviation="0" OffVelocity="0" Probability="1" IsEnabled="true" NoteId="169" />
														<MidiNoteEvent Time="141" Duration="0.650952432983682994" Velocity="90" VelocityDeviation="0" OffVelocity="0" Probability="1" IsEnabled="true" NoteId="175" />
														<MidiNoteEvent Time="147" Duration="1.047460352147852" Velocity="93" VelocityDeviation="0" OffVelocity="0" Probability="1" IsEnabled="true" NoteId="183" />
														<MidiNoteEvent Time="148.75" Duration="0.706190424159174213" Velocity="95" VelocityDeviation="0" OffVelocity="0" Probability="1" IsEnabled="true" NoteId="185" />
														<MidiNoteEvent Time="153" Duration="0.762910006660006634" Velocity="95" VelocityDeviation="0" OffVelocity="0" Probability="1" IsEnabled="true" NoteId="191" />
														<MidiNoteEvent Time="157" Duration="0.675873085248085204" Velocity="94" VelocityDeviation="0" OffVelocity="0" Probability="1" IsEnabled="true" NoteId="197" />
														<MidiNoteEvent Time="162" Duration="1.039100743006993" Velocity="99" VelocityDeviation="0" OffVelocity="0" Probability="1" IsEnabled="true" NoteId="204" />
														<MidiNoteEvent Time="165" Duration="0.543809575840825787" Velocity="92" VelocityDeviation="0" OffVelocity="0" Probability="1" IsEnabled="true" NoteId="207" />
														<MidiNoteEvent Time="169" Duration="0.570158747502497509" Velocity="95" VelocityDeviation="0" OffVelocity="0" Probability="1" IsEnabled="true" NoteId="213" />
														<MidiNoteEvent Time="172" Duration="1.8183069534632035" Velocity="91" VelocityDeviation="0" OffVelocity="0" Probability="1" IsEnabled="true" NoteId="218" />
														<MidiNoteEvent Time="181" Duration="0.60322750166500172" Velocity="95" VelocityDeviation="0" OffVelocity="0" Probability="1" IsEnabled="true" NoteId="220" />
														<MidiNoteEvent Time="185" Duration="0.699841304528804553" Velocity="97" VelocityDeviation="0" OffVelocity="0" Probability="1" IsEnabled="true" NoteId="226" />
														<MidiNoteEvent Time="189" Duration="0.617301708707958752" Velocity="91" VelocityDeviation="0" OffVelocity="0" Probability="1" IsEnabled="true" NoteId="232" />
														<MidiNoteEvent Time="195" Duration="0.972539699883449904" Velocity="93" VelocityDeviation="0" OffVelocity="0" Probability="1" IsEnabled="true" NoteId="240" />
													</Notes>
													<MidiKey Value="66" />
												</KeyTrack>
												<KeyTrack Id="34">
													<Notes>
														<MidiNoteEvent Time="4" Duration="1.1541271228771228" Velocity="112" VelocityDeviation="0" OffVelocity="0" Probability="1" IsEnabled="true" NoteId="1" />
														<MidiNoteEvent Time="5.5" Duration="1.0957144418081919" Velocity="103" VelocityDeviation="0" OffVelocity="0" Probability="1" IsEnabled="true" NoteId="3" />
														<MidiNoteEvent Time="8" Duration="1.0611110243922743" Velocity="108" VelocityDeviation="0" OffVelocity="0" Probability="1" IsEnabled="true" NoteId="7" />
														<MidiNoteEvent Time="9.5" Duration="1.1320104374791875" Velocity="104" VelocityDeviation="0" OffVelocity="0" Probability="1" IsEnabled="true" NoteId="9" />
														<MidiNoteEvent Time="12" Duration="1.0341268106893107" Velocity="94" VelocityDeviation="0" OffVelocity="0" Probability="1" IsEnabled="true" NoteId="13" />
														<MidiNoteEvent Time="13.5" Duration="1.2407407696470196" Velocity="95" VelocityDeviation="0" OffVelocity="0" Probability="1" IsEnabled="true" NoteId="15" />
														<MidiNoteEvent Time="20" Duration="0.977513111888111852" Velocity="101" VelocityDeviation="0" OffVelocity="0" Probability="1" IsEnabled="true" NoteId="23" />
														<MidiNoteEvent Time="21.5" Duration="1.0443387341824841" Velocity="109" VelocityDeviation="0" OffVelocity="0" Probability="1" IsEnabled="true" NoteId="25" />
														<MidiNoteEvent Time="24" Duration="1.0945502414252415" Velocity="99" VelocityDeviation="0" OffVelocity="0" Probability="1" IsEnabled="true" NoteId="29" />
														<MidiNoteEvent Time="25.5" Duration="1.0869841096403596" Velocity="100" VelocityDeviation="0" OffVelocity="0" Probability="1" IsEnabled="true" NoteId="31" />
														<MidiNoteEvent Time="28" Duration="0.967618839493839533" Velocity="95" VelocityDeviation="0" OffVelocity="0" Probability="1" IsEnabled="true" NoteId="35" />
														<MidiNoteEvent Time="29.5" Duration="1.5797356289543789" Velocity="100" VelocityDeviation="0" OffVelocity="0" Probability="1" IsEnabled="true" NoteId="38" />
														<MidiNoteEvent Time="36" Duration="0.985608402014652052" Velocity="99" VelocityDeviation="0" OffVelocity="0" Probability="1" IsEnabled="true" NoteId="45" />
														<MidiNoteEvent Time="37.5" Duration="1.2576720154845156" Velocity="109" VelocityDeviation="0" OffVelocity="0" Probability="1" IsEnabled="true" NoteId="47" />
														<MidiNoteEvent Time="40" Duration="0.978253777472527508" Velocity="90" VelocityDeviation="0" OffVelocity="0" Probability="1" IsEnabled="true" NoteId="51" />
														<MidiNoteEvent Time="41.5" Duration="1.4514287795537795" Velocity="101" VelocityDeviation="0" OffVelocity="0" Probability="1" IsEnabled="true" NoteId="53" />
														<MidiNoteEvent Time="44" Duration="1.0469311938061938" Velocity="102" VelocityDeviation="0" OffVelocity="0" Probability="1" IsEnabled="true" NoteId="57" />
														<MidiNoteEvent Time="45.5" Duration="2.8115342990342991" Velocity="100" VelocityDeviation="0" OffVelocity="0" Probability="1" IsEnabled="true" NoteId="62" />
														<MidiNoteEvent Time="52" Duration="0.97052921037296036" Velocity="97" VelocityDeviation="0" OffVelocity="0" Probability="1" IsEnabled="true" NoteId="67" />
														<MidiNoteEvent Time="53.5" Duration="1.1141270188145189" Velocity="100" VelocityDeviation="0" OffVelocity="0" Probability="1" IsEnabled="true" NoteId="69" />
														<MidiNoteEvent Time="56" Duration="1.0016402867965368" Velocity="104" VelocityDeviation="0" OffVelocity="0" Probability="1" IsEnabled="true" NoteId="73" />
														<MidiNoteEvent Time="57.5" Duration="0.956084540459540499" Velocity="99" VelocityDeviation="0" OffVelocity="0" Probability="1" IsEnabled="true" NoteId="75" />
														<MidiNoteEvent Time="60" Duration="1.0900529158341659" Velocity="102" VelocityDeviation="0" OffVelocity="0" Probability="1" IsEnabled="true" NoteId="79" />
														<MidiNoteEvent Time="61.75" Duration="0.839365062021312003" Velocity="106" VelocityDeviation="0" OffVelocity="0" Probability="1" IsEnabled="true" NoteId="81" />
														<MidiNoteEvent Time="64" Duration="1.1110582126207127" Velocity="93" VelocityDeviation="0" OffVelocity="0" Probability="1" IsEnabled="true" NoteId="85" />
														<MidiNoteEvent Time="65.5" Duration="0.792222360972360984" Velocity="95" VelocityDeviation="0" OffVelocity="0" Probability="1" IsEnabled="true" NoteId="87" />
														<MidiNoteEvent Time="68" Duration="1.0815871628371629" Velocity="109" VelocityDeviation="0" OffVelocity="0" Probability="1" IsEnabled="true" NoteId="88" />
														<MidiNoteEvent Time="69.5" Duration="1.1140213952713953" Velocity="98" VelocityDeviation="0" OffVelocity="0" Probability="1" IsEnabled="true" NoteId="90" />
														<MidiNoteEvent Time="72" Duration="0.903227501665001653" Velocity="102" VelocityDeviation="0" OffVelocity="0" Probability="1" IsEnabled="true" NoteId="94" />
														<MidiNoteEvent Time="73.5" Duration="1.206878277972028" Velocity="101" VelocityDeviation="0" OffVelocity="0" Probability="1" IsEnabled="true" NoteId="96" />
														<MidiNoteEvent Time="76" Duration="0.97465607309357305" Velocity="98" VelocityDeviation="0" OffVelocity="0" Probability="1" IsEnabled="true" NoteId="100" />
														<MidiNoteEvent Time="77.5" Duration="2.0706879058441556" Velocity="96" VelocityDeviation="0" OffVelocity="0" Probability="1" IsEnabled="true" NoteId="103" />
														<MidiNoteEvent Time="84" Duration="0.944603053196803155" Velocity="100" VelocityDeviation="0" OffVelocity="0" Probability="1" IsEnabled="true" NoteId="110" />
														<MidiNoteEvent Time="85.5" Duration="1.7835448405760905" Velocity="87" VelocityDeviation="0" OffVelocity="0" Probability="1" IsEnabled="true" NoteId="113" />
														<MidiNoteEvent Time="88" Duration="0.934179882617382606" Velocity="105" VelocityDeviation="0" OffVelocity="0" Probability="1" IsEnabled="true" NoteId="116" />
														<MidiNoteEvent Time="89.5" Duration="1.0669312458374958" Velocity="94" VelocityDeviation="0" OffVelocity="0" Probability="1" IsEnabled="true" NoteId="118" />
														<MidiNoteEvent Time="92" Duration="0.982645479520479537" Velocity="98" VelocityDeviation="0" OffVelocity="0" Probability="1" IsEnabled="true" NoteId="122" />
														<MidiNoteEvent Time="93.5" Duration="1.280581918081918" Velocity="100" VelocityDeviation="0" OffVelocity="0" Probability="1" IsEnabled="true" NoteId="124" />
														<MidiNoteEvent Time="100" Duration="0.996296151764901716" Velocity="85" VelocityDeviation="0" OffVelocity="0" Probability="1" IsEnabled="true" NoteId="132" />
														<MidiNoteEvent Time="101.5" Duration="1.1308993090243091" Velocity="112" VelocityDeviation="0" OffVelocity="0" Probability="1" IsEnabled="true" NoteId="134" />
														<MidiNoteEvent Time="116" Duration="1.0488360597735598" Velocity="107" VelocityDeviation="0" OffVelocity="0" Probability="1" IsEnabled="true" NoteId="140" />
														<MidiNoteEvent Time="117.5" Duration="1.4960846445221445" Velocity="93" VelocityDeviation="0" OffVelocity="0" Probability="1" IsEnabled="true" NoteId="142" />
														<MidiNoteEvent Time="120" Duration="0.913968323343323341" Velocity="98" VelocityDeviation="0" OffVelocity="0" Probability="1" IsEnabled="true" NoteId="146" />
														<MidiNoteEvent Time="121.5" Duration="1.3317989302364301" Velocity="99" VelocityDeviation="0" OffVelocity="0" Probability="1" IsEnabled="true" NoteId="148" />
														<MidiNoteEvent Time="124" Duration="1.0245504495504496" Velocity="95" VelocityDeviation="0" OffVelocity="0" Probability="1" IsEnabled="true" NoteId="152" />
														<MidiNoteEvent Time="125.5" Duration="1.1750793477355976" Velocity="100" VelocityDeviation="0" OffVelocity="0" Probability="1" IsEnabled="true" NoteId="154" />
														<MidiNoteEvent Time="132" Duration="1.0130156302031301" Velocity="95" VelocityDeviation="0" OffVelocity="0" Probability="1" IsEnabled="true" NoteId="162" />
														<MidiNoteEvent Time="133.5" Duration="1.1758202734765235" Velocity="100" VelocityDeviation="0" OffVelocity="0" Probability="1" IsEnabled="true" NoteId="164" />
														<MidiNoteEvent Time="136" Duration="1.0991534507159506" Velocity="101" VelocityDeviation="0" OffVelocity="0" Probability="1" IsEnabled="true" NoteId="168" />
														<MidiNoteEvent Time="137.5" Duration="1.2535979645354645" Velocity="98" VelocityDeviation="0" OffVelocity="0" Probability="1" IsEnabled="true" NoteId="170" />
														<MidiNoteEvent Time="140" Duration="1.1218518460705962" Velocity="105" VelocityDeviation="0" OffVelocity="0" Probability="1" IsEnabled="true" NoteId="174" />
														<MidiNoteEvent Time="141.5" Duration="1.1971957729770231" Velocity="96" VelocityDeviation="0" OffVelocity="0" Probability="1" IsEnabled="true" NoteId="176" />
														<MidiNoteEvent Time="148" Duration="0.962010645604395642" Velocity="93" VelocityDeviation="0" OffVelocity="0" Probability="1" IsEnabled="true" NoteId="184" />
														<MidiNoteEvent Time="149.5" Duration="1.212539803946054" Velocity="96" VelocityDeviation="0" OffVelocity="0" Probability="1" IsEnabled="true" NoteId="186" />
														<MidiNoteEvent Time="152" Duration="1.2015872148684648" Velocity="89" VelocityDeviation="0" OffVelocity="0" Probability="1" IsEnabled="true" NoteId="190" />
														<MidiNoteEvent Time="153.5" Duration="1.1448148205960706" Velocity="96" VelocityDeviation="0" OffVelocity="0" Probability="1" IsEnabled="true" NoteId="192" />
														<MidiNoteEvent Time="156" Duration="1.0555028305028304" Velocity="98" VelocityDeviation="0" OffVelocity="0" Probability="1" IsEnabled="true" NoteId="196" />
														<MidiNoteEvent Time="157.5" Duration="1.1753967386779887" Velocity="99" VelocityDeviation="0" OffVelocity="0" Probability="1" IsEnabled="true" NoteId="198" />
														<MidiNoteEvent Time="164" Duration="0.984814924658674706" Velocity="94" VelocityDeviation="0" OffVelocity="0" Probability="1" IsEnabled="true" NoteId="206" />
														<MidiNoteEvent Time="165.5" Duration="1.2173017087079587" Velocity="97" VelocityDeviation="0" OffVelocity="0" Probability="1" IsEnabled="true" NoteId="208" />
														<MidiNoteEvent Time="168" Duration="1.1194708936896436" Velocity="105" VelocityDeviation="0" OffVelocity="0" Probability="1" IsEnabled="true" NoteId="212" />
														<MidiNoteEvent Time="169.5" Duration="1.3011111284548784" Velocity="102" VelocityDeviation="0" OffVelocity="0" Probability="1" IsEnabled="true" NoteId="214" />
														<MidiNoteEvent Time="180" Duration="1.1118516899766899" Velocity="112" VelocityDeviation="0" OffVelocity="0" Probability="1" IsEnabled="true" NoteId="219" />
														<MidiNoteEvent Time="181.5" Duration="1.2767724463036962" Velocity="100" VelocityDeviation="0" OffVelocity="0" Probability="1" IsEnabled="true" NoteId="221" />
														<MidiNoteEvent Time="184" Duration="1.1088887674825174" Velocity="88" VelocityDeviation="0" OffVelocity="0" Probability="1" IsEnabled="true" NoteId="225" />
														<MidiNoteEvent Time="185.5" Duration="1.0917460144022644" Velocity="100" VelocityDeviation="0" OffVelocity="0" Probability="1" IsEnabled="true" NoteId="227" />
														<MidiNoteEvent Time="188" Duration="1.1978305548618049" Velocity="85" VelocityDeviation="0" OffVelocity="0" Probability="1" IsEnabled="true" NoteId="231" />
														<MidiNoteEvent Time="189.5" Duration="1.2402116113053614" Velocity="98" VelocityDeviation="0" OffVelocity="0" Probability="1" IsEnabled="true" NoteId="233" />
													</Notes>
													<MidiKey Value="68" />
												</KeyTrack>
											</KeyTracks>
											<PerNoteEventStore>
												<EventLists />
											</PerNoteEventStore>
											<NoteIdGenerator>
												<NextId Value="241" />
											</NoteIdGenerator>
										</Notes>
										<BankSelectCoarse Value="-1" />
										<BankSelectFine Value="-1" />
										<ProgramChange Value="-1" />
										<NoteEditorFoldInZoom Value="-1" />
										<NoteEditorFoldInScroll Value="0" />
										<NoteEditorFoldOutZoom Value="3072" />
										<NoteEditorFoldOutScroll Value="-1350" />
										<NoteEditorFoldScaleZoom Value="-1" />
										<NoteEditorFoldScaleScroll Value="0" />
										<ScaleInformation>
											<RootNote Value="9" />
											<Name Value="Major" />
										</ScaleInformation>
										<IsInKey Value="true" />
										<NoteSpellingPreference Value="3" />
										<PreferFlatRootNote Value="false" />
										<ExpressionGrid>
											<FixedNumerator Value="1" />
											<FixedDenominator Value="16" />
											<GridIntervalPixel Value="20" />
											<Ntoles Value="2" />
											<SnapToGrid Value="false" />
											<Fixed Value="false" />
										</ExpressionGrid>
									</MidiClip>